<?xml version="1.0" standalone="no"?>
<!DOCTYPE svg PUBLIC "-//W3C//DTD SVG 20010904//EN"
 "http://www.w3.org/TR/2001/REC-SVG-20010904/DTD/svg10.dtd">
<svg version="1.0" xmlns="http://www.w3.org/2000/svg"
 width="690.000000pt" height="690.000000pt" viewBox="0 0 690.000000 690.000000"
 preserveAspectRatio="xMidYMid meet">
<metadata>
Created by potrace 1.11, written by Peter Selinger 2001-2013
</metadata>
<g transform="translate(0.000000,690.000000) scale(0.100000,-0.100000)"
fill="#000000" stroke="none">
<path d="M3325 6310 c-3 -5 -13 -6 -22 -3 -12 5 -14 3 -8 -8 7 -11 5 -11 -10
1 -17 14 -18 13 -12 -3 4 -10 3 -16 -2 -12 -5 3 -11 2 -14 -2 -2 -5 -3 -3 -1
2 1 6 -6 11 -16 11 -12 0 -16 -5 -12 -16 5 -13 4 -13 -13 0 -11 9 -16 10 -11
3 4 -7 2 -13 -3 -13 -6 0 -11 8 -12 18 0 14 -2 14 -9 -3 -5 -11 -9 -14 -9 -7
-1 8 -6 10 -13 6 -19 -12 -48 -12 -48 0 0 5 -7 1 -15 -10 -13 -16 -14 -16 -9
-1 5 13 2 16 -10 11 -9 -3 -13 -11 -9 -17 4 -6 1 -7 -7 -2 -7 4 -16 2 -21 -6
-6 -9 -9 -10 -9 -2 0 13 -45 11 -58 -2 -4 -4 -1 -5 6 -1 6 4 12 2 12 -3 0 -14
-33 -9 -53 7 -11 9 -17 10 -22 2 -3 -6 -11 -7 -17 -4 -7 4 -8 2 -4 -5 5 -8 0
-10 -18 -7 -18 3 -24 1 -20 -6 5 -7 0 -9 -14 -6 -16 4 -19 2 -15 -10 5 -11 3
-13 -8 -6 -20 12 -40 14 -33 3 3 -5 10 -6 16 -3 7 4 8 2 4 -4 -7 -12 -36 -5
-36 9 0 5 -5 9 -11 9 -6 0 -9 -6 -6 -12 2 -7 -10 -19 -27 -27 -40 -18 -58 -22
-50 -10 3 5 0 9 -5 9 -6 0 -11 -4 -11 -9 0 -5 -7 -12 -16 -15 -8 -3 -12 -2 -9
3 3 5 1 12 -4 15 -5 4 -12 -3 -16 -14 -3 -11 -11 -20 -17 -20 -5 0 -7 8 -4 18
4 11 -1 8 -15 -8 -11 -14 -18 -19 -14 -12 4 7 0 12 -10 12 -9 0 -14 -4 -10 -9
3 -5 1 -12 -4 -15 -5 -4 -12 2 -14 11 -4 15 -5 15 -6 -2 -1 -17 -3 -18 -11 -5
-8 13 -10 13 -10 -1 0 -12 -8 -15 -26 -13 -19 2 -28 -3 -31 -16 -3 -12 -11
-16 -21 -13 -11 5 -13 3 -7 -6 6 -10 3 -11 -15 -1 -12 7 -20 8 -17 3 3 -5 2
-15 -4 -23 -7 -12 -9 -12 -9 3 0 10 -5 15 -10 12 -6 -4 -8 -10 -6 -14 3 -4 -9
-6 -25 -5 -20 1 -34 -4 -42 -17 -6 -10 -20 -19 -30 -19 -10 0 -15 -4 -12 -10
3 -5 3 -10 -2 -11 -4 0 -17 -3 -28 -5 -11 -3 -26 -6 -32 -6 -7 -1 -13 -5 -13
-9 0 -5 -8 -5 -17 -2 -16 6 -16 5 -4 -10 13 -16 12 -17 -14 -7 -22 9 -26 8
-17 -2 7 -9 6 -17 -6 -28 -14 -13 -15 -12 -9 3 3 9 3 17 -2 17 -5 0 -11 -9
-14 -21 -5 -17 -9 -19 -26 -9 -12 6 -20 7 -19 3 2 -4 -6 -18 -17 -30 -15 -18
-22 -20 -34 -10 -12 10 -13 9 -6 -2 6 -11 4 -13 -8 -8 -10 4 -22 -1 -30 -13
-8 -11 -17 -17 -22 -12 -4 4 -5 -1 -2 -10 3 -10 2 -20 -4 -23 -5 -4 -8 -1 -7
6 2 6 -3 14 -10 16 -7 3 -12 1 -11 -4 4 -22 -2 -32 -16 -27 -11 4 -13 2 -9 -9
4 -11 0 -15 -12 -13 -19 3 -64 -34 -57 -46 2 -4 -5 -5 -17 -3 -11 2 -23 -1
-26 -7 -5 -7 -2 -8 6 -3 9 5 11 4 6 -4 -4 -7 -13 -10 -19 -8 -7 2 -19 -7 -28
-20 -9 -14 -19 -24 -23 -24 -23 3 -30 0 -16 -9 13 -9 13 -10 0 -11 -8 -1 -19
-1 -23 0 -5 1 -6 -9 -3 -21 3 -13 3 -17 0 -10 -3 6 -10 12 -16 12 -13 0 -38
-26 -38 -39 0 -10 -14 -15 -32 -12 -5 0 -8 -8 -8 -19 0 -13 -7 -20 -18 -20
-26 0 -34 -11 -20 -27 6 -8 7 -13 2 -12 -23 4 -48 -2 -37 -9 9 -6 6 -11 -8
-21 -12 -7 -18 -8 -14 -2 3 6 4 11 0 11 -3 0 -10 -12 -15 -26 -7 -17 -15 -24
-25 -20 -8 3 -14 2 -14 -2 3 -20 -3 -32 -16 -32 -8 0 -14 -3 -14 -7 1 -5 1
-15 0 -23 -1 -13 -2 -13 -11 0 -7 11 -10 11 -10 2 0 -7 -5 -10 -10 -7 -6 4
-10 3 -9 -2 4 -17 -21 -63 -35 -63 -8 0 -18 -4 -21 -10 -3 -6 1 -7 12 -4 10 3
7 -1 -7 -9 -14 -9 -25 -19 -25 -24 0 -4 -4 -7 -9 -5 -5 2 -3 -5 5 -14 9 -12
10 -15 1 -10 -8 5 -15 -1 -21 -16 l-10 -23 -1 25 c-2 20 -4 16 -13 -16 -8 -28
-17 -40 -27 -39 -12 2 -15 -5 -14 -26 1 -16 -2 -26 -7 -23 -5 3 -9 0 -9 -5 0
-6 -6 -10 -12 -9 -8 2 -13 -6 -12 -19 1 -14 -3 -20 -12 -16 -10 4 -14 -3 -14
-22 0 -18 -4 -24 -12 -19 -10 6 -10 4 0 -8 10 -13 10 -18 1 -24 -8 -4 -9 -3
-5 4 4 7 2 12 -3 12 -6 0 -11 -6 -11 -14 0 -8 -6 -17 -12 -19 -10 -4 -9 -6 1
-6 8 -1 3 -10 -13 -22 -23 -18 -25 -23 -14 -37 10 -12 10 -14 1 -8 -13 7 -17
-6 -14 -44 0 -10 -1 -11 -5 -2 -9 19 -23 14 -19 -8 2 -11 -3 -23 -11 -28 -8
-5 -18 -24 -21 -43 -3 -19 -6 -39 -7 -46 -1 -7 -10 -20 -19 -31 -13 -15 -14
-21 -4 -31 10 -11 8 -11 -9 -3 -16 9 -21 8 -21 -3 0 -8 4 -12 8 -9 4 2 7 -4 6
-15 -1 -13 -5 -17 -12 -11 -7 6 -11 3 -11 -9 0 -12 6 -17 16 -14 10 3 10 1 -3
-7 -9 -6 -21 -9 -25 -6 -4 2 -8 -4 -8 -14 0 -15 3 -17 15 -7 12 10 12 9 1 -10
-8 -12 -19 -19 -25 -16 -5 4 -1 -4 9 -16 20 -22 20 -22 0 -15 -17 7 -18 6 -4
-11 9 -11 10 -16 3 -11 -9 5 -13 0 -13 -14 0 -14 -4 -19 -12 -14 -9 5 -8 2 1
-9 12 -16 12 -17 -5 -10 -16 6 -17 5 -6 -9 11 -14 10 -18 -5 -28 -16 -9 -15
-10 7 -6 14 3 19 3 12 0 -6 -3 -9 -11 -6 -16 5 -7 2 -8 -6 -3 -10 6 -12 4 -7
-9 5 -13 1 -19 -13 -23 -11 -3 -20 -10 -20 -15 0 -6 7 -8 15 -5 12 5 12 2 3
-18 -6 -14 -15 -25 -21 -25 -5 0 -6 -7 -3 -16 3 -8 2 -12 -4 -9 -6 3 -10 -1
-10 -10 0 -9 -4 -14 -8 -11 -4 2 -9 -5 -9 -17 -2 -18 0 -19 8 -7 9 13 10 13 6
0 -2 -8 -12 -14 -21 -14 -13 2 -14 -1 -6 -11 8 -10 6 -15 -8 -19 -14 -5 -18
-13 -14 -31 2 -14 0 -25 -5 -25 -6 0 -9 -11 -8 -25 2 -14 -2 -28 -7 -32 -6 -3
-8 -1 -4 5 3 6 3 13 -2 16 -4 2 -9 -7 -10 -20 -1 -15 2 -22 8 -19 16 10 11 -1
-7 -16 -11 -9 -14 -10 -9 -2 5 9 2 11 -9 7 -12 -5 -13 -10 -6 -17 17 -17 13
-31 -4 -17 -18 15 -20 -1 -2 -19 10 -11 9 -13 0 -7 -7 4 -13 2 -13 -4 0 -6 -5
-8 -12 -4 -10 6 -10 4 0 -8 10 -13 10 -18 1 -24 -8 -4 -9 -3 -5 4 5 8 1 10 -9
5 -9 -3 -13 -9 -8 -12 22 -17 10 -37 -20 -32 -5 1 -6 -3 -2 -9 3 -6 12 -8 18
-4 7 3 3 -2 -8 -11 -17 -14 -18 -17 -5 -26 12 -9 11 -10 -6 -6 -18 4 -20 1
-16 -16 4 -16 2 -19 -11 -14 -11 4 -14 2 -10 -8 3 -8 10 -12 17 -9 6 3 -1 -6
-17 -20 -20 -18 -26 -32 -23 -50 3 -18 1 -23 -10 -19 -9 3 -12 0 -9 -9 3 -8
-2 -21 -12 -29 -17 -13 -17 -13 -3 6 14 19 14 19 -3 6 -10 -8 -16 -20 -13 -28
3 -7 1 -13 -4 -13 -5 0 -6 -8 -3 -17 5 -13 3 -15 -13 -9 -15 6 -16 5 -7 -5 10
-10 9 -15 -5 -26 -12 -10 -12 -13 -2 -8 8 3 5 -2 -8 -11 -12 -9 -22 -21 -22
-26 0 -6 8 -4 18 3 15 13 16 12 3 -3 -7 -10 -21 -18 -30 -18 -14 0 -14 -2 -1
-10 15 -9 13 -11 -12 -14 -8 -1 -12 -11 -10 -25 2 -13 -1 -21 -6 -17 -5 3 -9
-4 -8 -17 1 -14 -4 -21 -13 -19 -12 3 -12 0 -1 -13 11 -13 10 -15 -3 -9 -12 4
-15 0 -13 -20 3 -23 1 -24 -12 -14 -13 10 -14 10 -8 1 5 -9 1 -13 -11 -14 -16
0 -16 -1 2 -9 14 -6 16 -9 5 -10 -8 -2 -19 -2 -24 -1 -5 1 -3 -6 5 -15 8 -10
9 -15 2 -11 -6 4 -14 3 -18 -3 -3 -5 -1 -10 4 -10 6 0 11 -4 11 -10 0 -5 -7
-7 -15 -4 -11 5 -13 2 -8 -12 4 -11 3 -15 -5 -10 -6 3 -14 1 -18 -5 -4 -7 -3
-9 4 -5 6 3 13 2 16 -3 3 -5 -6 -12 -21 -16 -19 -4 -23 -9 -14 -14 16 -10 13
-22 -8 -39 -9 -8 -10 -10 -3 -7 11 6 12 3 3 -12 -6 -11 -7 -24 -3 -28 4 -5 1
-5 -5 -1 -7 4 -13 2 -13 -4 0 -6 -6 -8 -12 -4 -7 4 -10 4 -6 -1 4 -4 2 -15 -5
-23 -10 -12 -9 -16 1 -20 9 -3 7 -9 -8 -22 -15 -13 -17 -19 -8 -23 8 -4 7 -6
-4 -6 -17 -1 -22 -12 -19 -40 2 -7 -2 -10 -8 -6 -16 9 -13 -1 5 -19 13 -14 14
-16 0 -16 -8 0 -18 -5 -22 -12 -4 -6 -3 -9 2 -5 15 9 8 -57 -10 -92 -9 -17
-14 -36 -11 -41 3 -5 0 -12 -6 -16 -7 -4 -9 -3 -5 4 3 6 3 13 -2 16 -4 2 -9
-4 -9 -15 -1 -10 3 -19 8 -19 6 0 7 -5 4 -10 -4 -6 -10 -8 -15 -5 -5 3 -7 -8
-5 -25 2 -21 -1 -33 -11 -37 -8 -3 -14 -9 -14 -15 0 -5 4 -7 8 -4 5 3 9 -1 9
-9 0 -8 -5 -13 -10 -12 -5 1 -12 -4 -15 -12 -2 -8 0 -11 6 -7 6 3 14 2 17 -4
4 -6 1 -9 -7 -8 -13 3 -15 -30 -5 -84 4 -19 2 -25 -7 -22 -10 4 -12 -2 -8 -22
3 -16 1 -25 -5 -21 -5 3 -8 -4 -7 -16 1 -12 3 -22 4 -22 2 0 4 -10 5 -22 1
-12 -2 -20 -6 -17 -5 3 -9 0 -9 -5 0 -6 6 -11 13 -11 8 0 7 -4 -3 -10 -9 -6
-11 -10 -3 -10 7 0 10 -7 6 -16 -3 -9 0 -20 8 -25 9 -6 10 -9 2 -9 -7 0 -17 8
-22 18 -6 9 -11 12 -11 5 0 -6 7 -18 15 -27 16 -16 20 -31 7 -22 -5 3 -9 -1
-9 -9 0 -8 3 -15 6 -15 4 0 12 -9 19 -21 10 -16 10 -19 1 -13 -9 5 -10 2 -6
-9 4 -10 1 -17 -6 -18 -7 0 -3 -4 8 -9 19 -8 19 -9 1 -9 -14 -1 -16 -4 -8 -14
6 -7 14 -28 17 -47 4 -25 3 -31 -5 -20 -8 13 -10 13 -10 -2 0 -10 5 -18 11
-18 8 0 7 -6 -2 -17 -12 -14 -12 -16 2 -11 9 4 16 1 16 -8 0 -7 -3 -11 -7 -9
-4 2 -7 -2 -7 -9 0 -8 6 -12 14 -9 8 3 13 -2 13 -12 0 -12 -5 -15 -17 -11 -16
6 -16 5 0 -12 10 -11 17 -23 16 -28 -4 -22 2 -34 16 -34 18 0 18 -1 5 -34 -10
-26 -2 -34 16 -16 6 6 10 3 10 -9 0 -11 -3 -18 -6 -16 -4 2 -7 -2 -7 -9 0 -9
7 -12 16 -9 13 5 13 3 4 -7 -9 -10 -8 -16 6 -29 9 -9 11 -12 4 -7 -21 14 -15
-1 9 -24 12 -11 18 -23 15 -27 -4 -3 -7 -1 -7 5 0 7 -5 12 -11 12 -8 0 -9 -4
0 -13 6 -8 8 -16 5 -20 -3 -3 5 -3 18 0 16 3 19 2 10 -5 -11 -7 -11 -12 2 -25
17 -16 22 -32 8 -23 -5 3 -9 -2 -9 -10 0 -10 4 -11 11 -4 17 17 25 11 20 -18
-5 -26 -5 -26 10 -7 10 14 14 16 14 5 -3 -45 4 -61 27 -70 14 -5 25 -12 25
-15 0 -4 -6 -3 -13 0 -6 4 -4 0 5 -8 10 -8 15 -17 11 -20 -3 -4 1 -7 10 -7 9
0 17 -7 17 -15 0 -8 5 -15 11 -15 5 0 7 5 3 12 -5 7 -3 8 5 4 7 -5 10 -14 7
-22 -3 -9 1 -14 13 -14 10 0 25 -8 32 -18 13 -15 12 -16 -4 -3 -15 12 -17 12
-11 -3 7 -19 15 -20 33 -3 10 8 12 8 7 0 -8 -14 4 -22 37 -25 14 -1 23 -6 21
-10 -3 -5 -11 -5 -17 -2 -7 4 -8 3 -4 -2 5 -5 14 -9 20 -9 6 0 17 -11 24 -25
9 -17 13 -20 13 -8 0 9 5 20 12 24 7 4 8 3 4 -4 -4 -7 -2 -12 4 -12 6 0 8 -5
4 -12 -6 -10 -5 -10 7 -2 11 9 17 9 26 -1 6 -7 9 -16 5 -21 -4 -4 -1 -4 6 0 7
4 10 12 7 17 -4 5 -1 9 4 9 6 0 11 -7 11 -16 0 -14 2 -15 17 -3 9 8 14 9 10 3
-4 -7 0 -15 9 -18 12 -4 15 -2 10 9 -3 8 -3 15 0 15 2 0 9 -10 14 -22 8 -21 9
-21 10 -3 1 19 1 19 11 2 9 -15 13 -16 27 -5 11 9 13 9 9 1 -6 -9 5 -11 40 -9
26 2 57 -1 68 -5 15 -7 12 -8 -13 -5 -17 2 -30 1 -27 -4 7 -12 81 -6 98 8 11
9 14 9 14 -3 0 -8 -5 -11 -10 -8 -6 3 -7 1 -3 -5 4 -6 13 -9 21 -6 8 4 13 9
10 13 -2 4 2 8 10 8 8 0 11 -5 8 -11 -3 -6 0 -6 7 1 11 10 16 9 27 -5 8 -9 12
-12 9 -5 -4 6 -2 14 4 18 5 3 10 1 10 -4 0 -6 4 -11 10 -11 5 0 7 8 4 18 -5
14 -3 14 10 -2 14 -18 21 -15 17 7 -1 5 3 6 9 2 5 -3 10 0 10 7 0 9 3 9 8 2
12 -19 36 -21 50 -5 12 14 13 14 7 -3 -6 -20 -6 -20 16 0 12 10 19 14 16 7 -8
-13 18 -12 30 2 4 4 2 5 -6 0 -10 -6 -12 -4 -7 4 6 9 11 9 22 0 8 -7 14 -7 14
-1 0 5 7 13 16 16 8 3 12 2 9 -3 -3 -5 -1 -13 5 -16 6 -4 9 -1 8 6 -2 6 3 14
11 17 10 3 11 0 5 -9 -6 -12 -5 -12 8 -1 14 11 17 10 24 -10 12 -36 13 -49 3
-42 -5 3 -9 1 -9 -5 0 -5 8 -12 18 -14 14 -4 14 -5 -3 -6 -17 -1 -18 -3 -5
-11 12 -8 12 -10 -5 -10 -16 0 -17 -2 -5 -9 8 -6 18 -7 22 -5 4 3 5 -2 2 -10
-3 -9 -10 -14 -14 -11 -5 3 -11 1 -14 -4 -4 -5 -1 -13 5 -17 8 -5 9 -3 4 6 -5
9 -4 11 4 6 9 -6 9 -11 -1 -24 -10 -12 -10 -14 -1 -8 8 4 13 1 13 -9 0 -9 -4
-14 -9 -10 -5 3 -12 1 -15 -4 -4 -5 -1 -13 5 -17 8 -5 9 -3 4 6 -5 9 -4 11 4
6 6 -4 8 -13 4 -19 -14 -22 -11 -36 5 -30 11 5 13 3 7 -7 -5 -8 -1 -18 11 -28
15 -11 15 -13 2 -9 -17 6 -20 -16 -3 -30 4 -4 5 -2 1 5 -10 16 -1 15 13 -2 9
-11 9 -16 0 -22 -8 -5 -10 -3 -4 7 5 8 4 10 0 6 -15 -13 -14 -36 1 -30 9 3 14
-2 14 -17 0 -15 5 -20 14 -17 10 4 13 1 10 -7 -3 -8 0 -17 6 -21 8 -5 7 -11
-2 -23 -7 -10 -9 -14 -4 -10 11 9 57 -37 53 -54 -2 -7 -2 -10 0 -5 8 14 23 7
23 -11 0 -23 19 -42 41 -42 10 0 21 -5 25 -12 5 -7 3 -8 -6 -3 -9 5 -11 4 -6
-4 4 -6 16 -9 27 -6 11 4 19 3 18 -2 -5 -27 1 -35 17 -23 13 11 16 10 21 -9 4
-14 11 -20 20 -17 10 4 17 -2 21 -16 5 -21 6 -21 13 -2 7 17 8 17 8 -5 1 -21
5 -23 31 -17 18 3 30 1 30 -5 0 -6 -5 -7 -12 -3 -7 5 -8 3 -4 -5 5 -7 11 -10
14 -7 3 3 13 -1 23 -10 11 -10 19 -12 24 -5 4 8 13 7 28 -1 24 -13 46 -18 95
-20 17 -1 32 -6 32 -11 0 -5 8 -3 17 4 9 8 14 9 10 2 -5 -7 -1 -10 10 -9 10 2
21 -2 25 -8 5 -7 8 -7 8 3 0 11 3 11 18 0 14 -11 15 -11 5 1 -23 26 -13 32 17
10 25 -18 29 -19 23 -4 -4 12 -3 15 5 10 7 -4 12 -2 12 6 0 10 3 9 9 -1 8 -12
12 -12 25 -2 9 8 16 10 16 5 0 -5 5 -2 10 6 8 13 10 12 10 -2 0 -23 9 -23 27
0 8 10 11 11 7 2 -7 -13 -5 -13 9 -1 9 7 17 10 17 6 0 -4 8 -1 17 6 10 8 14 9
10 2 -5 -8 -1 -11 12 -10 15 1 17 4 9 14 -8 10 -7 12 6 7 9 -3 23 -1 30 5 10
9 16 9 21 1 4 -6 1 -9 -6 -8 -6 2 -14 -4 -16 -12 -4 -13 -3 -13 6 0 6 8 11 11
11 6 0 -5 7 -3 15 4 8 7 13 16 10 20 -3 5 0 12 6 16 7 4 9 3 6 -3 -4 -6 2 -13
13 -16 11 -3 18 -1 15 3 -3 5 -1 11 5 15 5 3 10 1 10 -4 0 -6 5 -11 11 -11 5
0 7 5 4 10 -3 6 1 10 10 10 10 0 13 5 9 13 -6 9 -5 9 7 0 10 -8 19 -9 29 -1
13 8 12 9 -2 4 -11 -3 -15 -1 -12 7 2 7 13 13 24 13 10 0 16 -5 13 -11 -2 -5
4 1 15 14 13 16 26 22 40 19 14 -4 19 -2 15 7 -3 8 4 15 19 17 13 2 24 9 24
16 3 25 4 27 13 14 6 -10 11 -9 22 4 12 16 12 17 -1 10 -8 -4 -6 -1 4 8 10 8
24 12 30 9 6 -4 5 1 -3 10 -12 15 -12 17 1 12 10 -4 17 1 21 14 3 12 11 21 19
21 10 0 10 -3 -2 -11 -12 -9 -12 -10 3 -5 10 3 21 6 23 6 3 0 3 4 0 8 -9 15
39 8 52 -7 12 -14 13 -14 8 2 -3 11 -2 16 4 12 6 -3 10 0 10 7 0 9 3 10 8 2 4
-6 23 -11 42 -10 19 1 39 -3 43 -9 6 -7 10 -6 14 3 2 6 9 12 14 12 6 0 8 -4 4
-9 -3 -5 -1 -13 5 -16 6 -4 9 -1 8 6 -4 15 1 15 287 24 160 5 242 11 247 19 6
8 8 8 8 -1 0 -12 44 -12 56 0 4 3 15 2 25 -3 12 -7 20 -7 24 0 4 6 12 7 18 3
17 -11 51 -10 59 2 5 6 8 5 8 -3 0 -10 5 -10 20 -2 16 9 20 8 20 -7 0 -15 1
-15 14 2 11 16 17 17 29 7 11 -9 17 -10 22 -2 5 8 11 7 23 -2 12 -10 14 -10 8
0 -7 12 0 14 77 16 25 0 36 5 33 13 -3 7 1 10 9 6 8 -3 13 -8 10 -12 -6 -10
33 -7 42 4 5 4 3 5 -4 1 -6 -3 -14 -2 -18 4 -7 11 18 14 29 3 10 -11 37 -12
30 -2 -3 5 2 9 11 9 9 0 13 -4 10 -10 -4 -6 1 -7 11 -3 12 4 15 3 10 -5 -11
-18 0 -14 15 5 12 15 12 16 -1 8 -8 -4 -12 -4 -7 0 9 10 57 14 51 4 -2 -4 3
-9 11 -13 8 -3 17 0 21 6 5 7 2 8 -7 3 -8 -5 -11 -4 -7 0 10 11 60 16 54 6 -3
-4 1 -8 9 -8 8 0 12 4 9 9 -3 4 8 8 23 8 16 0 35 6 42 13 9 8 12 8 7 0 -9 -16
14 -22 42 -11 13 4 29 5 35 1 7 -4 6 1 -2 10 -12 15 -12 17 3 11 9 -3 16 -10
16 -15 0 -5 4 -9 10 -9 5 0 7 7 4 15 -5 11 -2 13 10 9 9 -3 14 -9 11 -13 -6
-10 33 -7 42 4 5 4 3 5 -4 1 -6 -3 -14 -2 -17 3 -7 11 13 9 33 -3 10 -7 12 -6
6 4 -6 10 -4 12 7 7 9 -3 20 -1 26 5 6 6 12 6 16 -1 5 -8 13 -8 26 -1 15 8 22
6 30 -7 11 -17 11 -17 6 1 -5 13 -2 17 8 13 9 -4 17 1 19 11 4 16 5 16 6 0 1
-17 7 -17 49 -1 29 10 42 12 37 3 -8 -13 20 -19 36 -8 11 8 10 9 -4 4 -10 -3
-15 -2 -12 3 3 6 14 9 25 8 10 -1 16 -5 14 -9 -3 -4 0 -8 5 -8 6 0 11 7 11 15
0 9 6 12 15 9 8 -4 12 -11 9 -18 -3 -6 0 -4 8 4 17 20 54 24 37 4 -9 -11 -8
-14 6 -14 11 0 15 -5 11 -16 -4 -10 -2 -13 6 -8 8 5 9 2 4 -11 -5 -14 -4 -15
7 -7 10 8 13 6 13 -8 0 -10 -5 -16 -10 -13 -5 4 -6 1 -2 -6 5 -7 15 -10 23 -6
13 4 14 3 4 -9 -10 -11 -8 -17 10 -29 11 -9 18 -20 15 -26 -4 -6 -1 -9 7 -5 8
3 18 0 23 -7 5 -8 3 -10 -7 -5 -8 4 -6 1 5 -8 10 -8 15 -19 12 -25 -9 -13 31
-34 51 -27 9 4 13 1 11 -6 -3 -7 1 -18 8 -25 16 -17 27 -17 18 0 -5 8 -2 7 10
-2 13 -11 14 -16 4 -22 -7 -5 -8 -9 -2 -9 5 0 16 6 23 13 11 10 13 10 7 0 -4
-7 -3 -13 3 -13 6 0 20 -10 32 -22 12 -13 18 -16 14 -8 -8 13 -6 13 8 1 9 -7
14 -18 10 -25 -4 -7 -1 -7 7 1 11 10 17 9 29 -5 11 -13 30 -18 63 -17 31 0 43
-3 38 -10 -6 -7 -2 -11 11 -12 12 -1 17 2 12 10 -3 7 4 3 17 -8 13 -11 20 -15
17 -9 -4 7 0 15 9 18 8 3 12 2 9 -3 -3 -5 -1 -12 5 -16 5 -3 10 -1 10 5 0 6 5
8 10 5 6 -4 8 -10 6 -14 -3 -4 1 -8 9 -8 8 0 12 5 8 10 -3 5 2 5 13 0 11 -5
26 -9 34 -8 8 1 26 -5 40 -13 l25 -15 -20 24 c-13 15 -14 19 -3 11 16 -13 53
-13 75 1 6 4 15 2 19 -4 4 -7 3 -9 -4 -5 -6 3 -13 2 -16 -3 -4 -5 -2 -12 3
-15 5 -4 13 -2 16 4 4 6 25 9 48 6 23 -2 36 -2 30 1 -18 7 -16 20 2 20 8 0 15
-5 15 -11 0 -5 7 -1 16 10 8 10 13 14 10 7 -4 -6 -2 -14 3 -17 5 -4 13 3 16
15 6 19 7 20 21 2 9 -13 13 -14 14 -4 0 11 3 11 17 0 15 -12 16 -12 10 4 -4
10 -3 16 2 12 5 -3 12 -1 16 4 3 6 12 8 19 5 8 -3 17 0 21 6 5 8 11 7 23 -2
13 -11 14 -11 8 0 -5 9 -3 13 5 11 28 -3 50 1 45 10 -3 5 1 12 10 15 10 4 13
2 8 -7 -5 -8 -2 -7 9 2 9 7 17 21 17 30 0 11 3 12 8 4 5 -8 11 -8 24 1 10 7
14 17 10 22 -4 4 2 2 12 -6 11 -8 17 -10 14 -5 -4 6 -3 17 3 25 6 10 9 11 9 3
0 -7 5 -13 11 -13 5 0 7 5 4 10 -3 6 1 10 10 10 9 0 13 5 10 10 -3 6 -1 10 5
10 6 0 9 4 6 9 -4 5 4 7 16 4 19 -4 20 -3 8 6 -13 9 -12 11 3 11 10 0 15 5 12
11 -4 6 0 9 11 7 14 -2 18 2 16 16 -2 12 1 16 9 10 9 -5 10 -2 6 10 -4 10 -3
15 3 11 6 -3 10 -1 10 5 0 6 5 8 12 4 8 -5 9 0 6 14 -4 14 -2 20 5 15 6 -4 8
0 4 10 -4 10 1 22 14 31 13 8 16 15 9 18 -8 2 -6 9 6 18 11 9 15 10 10 3 -4
-7 -2 -13 3 -13 15 0 14 27 -1 33 -8 4 -7 6 4 6 11 1 15 8 14 26 -2 14 1 22 7
18 6 -4 8 2 4 16 -4 17 -2 21 9 17 11 -4 11 0 -2 19 -9 14 -12 25 -6 25 6 0
12 -6 14 -12 3 -7 7 -3 10 9 4 16 2 20 -9 16 -13 -5 -13 -3 -2 14 14 23 5 58
-12 47 -8 -4 -9 -3 -5 4 4 6 14 9 24 6 15 -5 15 -4 2 8 -18 15 -23 91 -5 84
15 -5 6 54 -11 71 -13 13 -8 48 10 73 10 13 9 13 -8 0 -18 -14 -19 -13 -13 2
4 11 2 18 -5 18 -6 0 -8 3 -5 7 4 3 -1 11 -10 18 -13 9 -13 14 -3 20 9 6 11 4
5 -5 -5 -9 -4 -11 4 -6 8 6 9 12 2 20 -6 7 -7 17 -3 21 4 5 2 6 -3 2 -6 -3
-17 -2 -25 4 -11 6 -12 9 -2 9 8 0 10 5 6 13 -5 8 -2 7 9 -2 15 -12 17 -12 11
4 -5 13 -4 16 4 11 8 -5 10 -1 5 10 -4 12 -3 15 5 10 8 -4 12 -1 12 10 0 10 3
15 6 12 7 -8 54 39 55 55 0 7 3 5 7 -4 6 -14 9 -14 27 3 20 19 20 19 0 13 -11
-3 -5 2 13 10 33 15 46 32 16 21 -14 -5 -15 -4 -4 9 7 8 17 12 23 8 7 -4 8 0
3 12 -5 14 -4 15 7 7 10 -8 16 -6 27 11 12 20 12 21 -3 9 -13 -11 -15 -10 -10
7 3 11 10 18 17 15 7 -3 17 8 24 23 10 26 11 26 6 3 l-5 -25 15 25 c11 18 11
27 3 32 -8 5 -5 8 7 8 13 0 17 5 13 19 -3 15 0 19 14 16 13 -3 16 1 12 12 -4
11 -2 14 5 9 7 -4 12 -2 12 6 0 7 10 19 22 27 21 13 21 14 2 29 -16 12 -16 14
-1 9 11 -4 17 -1 17 9 0 8 4 12 10 9 6 -3 7 1 4 9 -3 9 -11 13 -17 9 -6 -3 -7
-1 -3 6 6 9 11 9 21 1 10 -9 13 -7 11 7 -2 10 4 23 13 30 14 11 14 12 1 13
-12 0 -11 3 3 11 17 10 17 12 2 29 -12 14 -13 20 -4 26 7 4 10 3 6 -3 -4 -6
-1 -13 7 -16 16 -6 17 24 1 35 -6 5 -3 8 6 8 9 0 20 7 23 16 6 15 4 15 -10 3
-16 -13 -16 -12 -5 8 7 14 17 20 29 17 9 -3 6 2 -8 10 -17 10 -20 15 -9 16 10
0 15 8 14 22 -2 13 -8 22 -14 20 -7 -1 -10 2 -6 7 3 6 13 7 23 4 14 -6 15 -4
4 9 -10 13 -10 17 0 21 10 4 9 6 -1 6 -11 1 -10 5 5 16 16 13 16 14 1 9 -13
-5 -16 -2 -11 10 3 9 10 13 15 10 5 -3 6 2 3 10 -3 9 -10 16 -15 16 -5 0 -9 5
-9 11 0 5 3 8 8 5 4 -2 7 31 7 74 0 43 -3 76 -6 74 -10 -6 -17 17 -14 45 1 14
8 27 16 29 11 3 11 1 -1 -7 -8 -6 -10 -11 -4 -11 19 0 24 13 11 28 -10 13 -9
14 2 7 11 -6 13 -4 7 10 -6 16 -4 16 11 4 15 -12 16 -12 11 2 -4 9 -1 22 5 28
9 9 7 11 -8 6 -16 -4 -15 -3 3 6 12 7 22 16 22 21 0 5 -5 6 -12 2 -7 -4 -8 -3
-4 5 6 9 12 9 24 -1 10 -7 14 -8 10 -4 -4 5 -2 16 5 24 8 10 8 13 1 9 -7 -4
-15 1 -18 10 -4 10 -4 14 0 11 6 -7 17 2 44 36 8 11 10 17 3 13 -6 -4 -15 -2
-19 4 -4 7 -3 9 2 6 6 -3 16 -2 24 4 9 5 10 9 4 9 -7 0 -11 11 -10 24 0 13 5
22 9 19 5 -3 6 -12 3 -20 -3 -8 -2 -12 3 -9 5 3 8 24 7 47 -2 36 0 40 17 35
15 -4 17 -2 8 7 -13 13 -15 31 -2 23 5 -4 8 2 6 11 -1 10 3 24 9 32 8 11 8 13
-1 8 -6 -4 -14 -3 -17 2 -4 5 -2 12 3 16 5 3 9 14 8 25 -1 10 -5 16 -9 14 -4
-3 -8 0 -8 5 0 6 4 11 9 11 11 0 9 49 -3 69 -6 10 -5 12 2 7 7 -4 12 -2 12 3
0 6 -8 11 -17 12 -15 0 -15 2 -3 7 21 10 22 43 2 58 -9 7 -14 16 -9 20 4 4 7
2 7 -4 0 -7 4 -12 10 -12 14 0 8 23 -10 37 -8 6 -12 15 -7 19 4 4 7 2 7 -4 0
-7 4 -12 9 -12 11 0 8 51 -3 69 -6 9 -5 12 1 8 5 -4 10 7 10 23 0 17 -5 30
-11 30 -6 0 -4 5 4 10 10 6 11 10 3 10 -7 0 -13 5 -13 11 0 5 5 7 10 4 6 -3
10 -1 10 4 0 6 -4 11 -10 11 -5 0 -10 5 -10 11 0 5 4 8 9 5 5 -3 7 10 5 29 -2
26 0 34 9 28 9 -5 9 -3 0 9 -7 8 -9 19 -5 23 4 5 1 5 -6 1 -7 -4 -10 -11 -7
-16 3 -5 2 -11 -3 -14 -10 -6 -9 45 2 62 5 8 2 10 -11 5 -10 -3 -15 -3 -11 2
4 4 2 15 -5 23 -6 9 -7 13 -1 9 7 -4 11 5 11 23 0 17 -4 30 -9 30 -5 0 -7 -4
-3 -9 3 -5 2 -12 -2 -14 -5 -3 -9 8 -10 25 0 20 2 26 8 17 6 -10 8 -8 6 8 0
12 -5 19 -9 17 -4 -3 -8 0 -8 6 0 6 -4 8 -10 5 -7 -4 -7 3 0 20 5 14 6 24 1
21 -8 -6 -20 12 -17 25 0 3 -5 13 -12 22 -7 8 -9 18 -4 21 5 3 7 17 4 31 -2
14 -7 23 -10 20 -6 -6 -30 44 -28 60 1 6 4 9 8 8 5 -2 8 2 8 7 0 6 -10 10 -22
10 -17 0 -19 3 -9 9 8 5 11 16 6 30 -3 12 -11 19 -16 16 -5 -3 -6 1 -3 9 4 10
1 16 -9 16 -9 0 -15 8 -14 19 0 11 6 17 12 15 5 -3 2 1 -7 9 -10 8 -18 24 -18
36 0 18 -9 25 -30 23 -4 0 -6 10 -6 23 0 13 4 21 8 19 5 -3 6 -9 3 -14 -3 -5
-1 -11 4 -15 15 -9 4 33 -13 50 -8 9 -13 22 -10 30 4 9 -2 18 -17 23 -15 6
-19 11 -10 16 9 6 9 11 0 22 -6 8 -8 14 -3 14 4 0 -2 9 -14 20 -12 12 -22 30
-22 42 0 12 -3 18 -7 15 -8 -9 -33 12 -33 27 0 6 5 4 10 -4 7 -12 9 -10 8 7
-2 14 -8 20 -20 18 -14 -3 -16 0 -8 21 6 14 6 23 1 20 -4 -3 -17 1 -27 9 -17
13 -17 14 -1 9 13 -5 16 -2 11 10 -3 9 -10 13 -15 10 -13 -8 -11 10 4 25 10
10 8 11 -7 5 -15 -6 -18 -4 -14 8 4 8 2 21 -3 29 -7 11 -9 11 -9 1 0 -7 -5
-10 -10 -7 -6 4 -8 10 -5 15 3 5 1 11 -5 15 -6 4 -8 10 -6 14 3 4 -4 17 -14
29 -11 12 -20 26 -20 32 0 5 -5 10 -11 10 -5 0 -7 6 -4 13 4 6 0 3 -9 -7 -15
-18 -15 -17 -11 12 3 25 0 32 -13 32 -15 0 -15 2 -2 10 12 8 12 10 -5 10 -17
0 -17 2 -5 10 12 8 11 10 -7 10 -23 0 -40 31 -27 51 5 8 1 8 -14 0 -17 -9 -20
-8 -18 7 2 9 -2 20 -8 24 -8 5 -7 8 2 8 10 0 10 3 0 14 -9 10 -15 11 -20 2 -5
-6 -8 -1 -8 12 0 13 -4 20 -10 17 -5 -3 -10 0 -10 7 0 8 -6 20 -12 27 -7 6
-13 17 -13 24 0 6 -11 17 -23 23 -17 8 -20 13 -10 17 9 4 7 6 -4 6 -10 1 -18
6 -18 12 0 5 -5 7 -11 3 -8 -4 -8 0 0 15 14 26 8 27 -15 4 -17 -17 -17 -17
-11 -1 4 11 0 21 -11 28 -15 8 -15 11 -2 20 12 9 10 10 -9 5 -20 -6 -23 -4
-18 9 4 10 3 15 -3 11 -9 -6 -14 7 -11 27 0 4 -6 5 -14 2 -8 -4 -15 -1 -15 6
0 6 -4 8 -10 5 -5 -3 -10 1 -10 10 0 9 5 13 10 10 6 -3 10 -1 10 5 0 7 -7 9
-16 6 -21 -8 -44 11 -44 35 0 10 -4 20 -9 24 -6 3 -8 -4 -6 -16 2 -12 1 -19
-2 -15 -4 4 -8 16 -10 29 -2 12 -9 26 -15 32 -8 7 -9 6 -3 -5 4 -8 -1 -6 -12
5 -11 11 -18 24 -15 29 3 5 0 6 -5 3 -6 -4 -19 1 -30 11 -10 9 -12 13 -3 7 13
-9 13 -8 1 8 -7 9 -22 17 -32 17 -11 0 -19 7 -19 16 0 8 -4 12 -10 9 -5 -3
-10 1 -10 9 0 9 -5 15 -12 14 -7 -2 -12 4 -13 12 0 9 -8 14 -19 12 -14 -3 -17
1 -13 13 4 9 2 15 -6 14 -22 -3 -37 1 -36 9 3 17 -1 32 -8 30 -5 -1 -18 3 -29
10 -12 6 -24 8 -28 4 -4 -3 -4 2 0 11 3 10 3 17 -2 16 -20 -3 -34 2 -34 12 0
5 6 7 13 3 6 -4 3 2 -7 14 -16 18 -22 20 -34 9 -13 -10 -15 -9 -9 7 6 14 4 17
-8 12 -8 -3 -15 -1 -15 5 0 6 -7 8 -16 5 -12 -5 -15 -2 -10 9 3 9 2 13 -4 10
-6 -3 -10 -1 -10 6 0 9 -3 9 -14 0 -11 -9 -16 -9 -22 0 -4 8 -3 9 4 5 7 -4 12
-2 12 3 0 6 -7 11 -16 11 -9 0 -23 8 -31 18 -8 9 -11 11 -7 3 4 -9 3 -12 -4
-7 -6 4 -8 14 -5 24 6 15 5 16 -12 2 -10 -8 -16 -10 -12 -3 4 6 3 14 -3 18 -5
3 -10 1 -10 -6 0 -10 -3 -10 -12 -1 -10 10 -10 15 2 23 11 8 9 9 -9 4 -14 -4
-21 -3 -18 3 4 5 -5 8 -19 6 -19 -2 -23 1 -15 10 13 16 -18 18 -37 3 -9 -7
-11 -6 -7 6 4 8 1 18 -6 23 -8 5 -10 3 -4 -5 4 -8 -4 -6 -18 4 -15 9 -31 14
-36 11 -6 -4 -8 3 -6 15 4 17 2 20 -7 11 -9 -9 -16 -8 -30 5 -10 9 -18 13 -18
9 0 -3 -10 0 -23 9 -13 8 -28 12 -32 8 -5 -5 -3 0 4 10 12 15 12 17 -3 11 -9
-3 -22 -1 -30 5 -8 7 -18 11 -22 10 -22 -4 -34 2 -34 17 0 8 -5 12 -10 9 -6
-4 -8 -12 -4 -18 3 -7 -8 3 -25 21 -17 17 -37 32 -45 32 -8 0 -17 4 -21 10 -3
5 -12 7 -19 4 -8 -3 -17 0 -22 7 -5 8 -3 10 6 4 9 -6 11 -4 6 4 -6 9 -13 8
-28 -6 -11 -9 -19 -13 -18 -8 5 21 -1 33 -16 39 -8 3 -13 2 -10 -2 3 -5 -4 -8
-16 -7 -21 2 -51 32 -43 45 2 4 -3 7 -11 7 -10 0 -11 -4 -4 -11 5 -5 10 -14
10 -18 0 -5 -11 3 -25 17 -14 14 -31 25 -37 25 -7 0 -3 -7 8 -15 10 -8 14 -15
8 -15 -6 0 -17 7 -24 15 -7 8 -16 13 -20 10 -4 -3 -7 3 -6 12 1 14 -9 17 -51
19 -50 2 -91 23 -75 38 4 4 -6 2 -22 -4 -25 -9 -28 -8 -22 7 6 14 4 14 -15 -3
-12 -10 -19 -14 -16 -8 4 7 0 17 -8 24 -13 11 -14 10 -9 -4 5 -12 2 -15 -10
-10 -10 4 -15 13 -12 20 3 8 1 14 -4 14 -6 0 -10 -8 -10 -17 -1 -17 -1 -17
-11 0 -6 9 -14 15 -20 12 -5 -4 -9 -2 -9 3 0 6 -7 12 -14 15 -11 4 -13 1 -9
-11 6 -15 5 -15 -10 -3 -9 7 -15 16 -13 20 3 4 -4 7 -14 8 -11 1 -22 -3 -25
-8 -4 -5 -13 -3 -21 6 -9 8 -20 12 -26 9 -6 -4 -14 -1 -18 6 -5 8 -13 9 -21 4
-18 -11 -58 -13 -65 -3 -2 4 4 6 14 4 10 -2 25 1 32 5 13 8 3 8 -63 1 -5 -1
-5 -6 -1 -13 4 -7 3 -8 -4 -4 -6 4 -8 14 -5 24 6 15 4 15 -15 -2 -12 -11 -25
-16 -29 -13 -3 4 -1 7 5 7 7 0 12 4 12 9 0 4 -24 8 -54 7 -46 -1 -53 1 -43 13
9 12 9 13 0 7 -8 -4 -13 -2 -14 6 0 7 -4 4 -9 -7 -5 -11 -9 -14 -9 -7 -1 6 -6
12 -12 12 -5 0 -8 -4 -5 -9 7 -10 -35 -8 -52 3 -7 4 -12 2 -12 -3 0 -6 -5 -11
-11 -11 -6 0 -9 6 -6 13 6 16 -31 16 -41 0 -5 -8 -12 -8 -24 1 -10 7 -14 17
-10 22 4 4 -1 2 -10 -5 -12 -9 -18 -10 -18 -2 0 6 -4 11 -10 11 -5 0 -7 -8 -3
-17 4 -12 -1 -9 -15 7 -12 14 -20 18 -17 10 4 -11 -1 -16 -14 -16 -15 0 -17 3
-9 13 8 10 7 12 -6 7 -9 -3 -16 -11 -16 -17 0 -6 -7 -2 -16 9 -8 10 -13 13 -9
7 4 -8 0 -13 -10 -13 -10 0 -14 5 -9 13 5 9 4 9 -6 0 -9 -8 -19 -9 -31 -2 -13
7 -20 5 -28 -8 -6 -10 -11 -12 -11 -5 0 6 -5 12 -11 12 -5 0 -7 -5 -3 -11 4
-7 1 -10 -7 -7 -8 3 -13 12 -11 19 1 10 -2 9 -11 -3 -12 -15 -14 -15 -25 0 -9
13 -10 14 -6 2 3 -11 -2 -16 -15 -16 -15 0 -17 3 -9 13 8 10 7 12 -6 7 -9 -3
-16 -11 -16 -17 0 -6 -7 -2 -16 9 -8 10 -13 13 -9 7 4 -8 0 -13 -10 -13 -9 0
-13 5 -10 10 3 6 4 10 1 10 -3 0 -7 -4 -11 -10z m216 -17 c13 -16 12 -17 -3
-4 -10 7 -18 15 -18 17 0 8 8 3 21 -13z m-611 -43 c0 -5 -5 -10 -11 -10 -5 0
-7 5 -4 10 3 6 8 10 11 10 2 0 4 -4 4 -10z m-45 -19 c3 -5 2 -12 -3 -15 -5 -3
-9 1 -9 9 0 17 3 19 12 6z m1333 -26 c-3 -3 -9 2 -12 12 -6 14 -5 15 5 6 7 -7
10 -15 7 -18z m-1916 -167 c-7 -7 -12 -8 -12 -2 0 14 12 26 19 19 2 -3 -1 -11
-7 -17z m2588 -58 c0 -5 -5 -10 -11 -10 -5 0 -7 5 -4 10 3 6 8 10 11 10 2 0 4
-4 4 -10z m-2910 -114 c0 -2 -7 -6 -15 -10 -8 -3 -15 -1 -15 4 0 6 7 10 15 10
8 0 15 -2 15 -4z m3605 -246 c3 -5 1 -10 -4 -10 -6 0 -11 5 -11 10 0 6 2 10 4
10 3 0 8 -4 11 -10z m-4227 -274 c-7 -8 -15 -12 -17 -11 -5 6 10 25 20 25 5 0
4 -6 -3 -14z m4837 -315 c3 -5 2 -12 -3 -15 -5 -3 -9 1 -9 9 0 17 3 19 12 6z
m-5134 -104 c-10 -9 -11 -8 -5 6 3 10 9 15 12 12 3 -3 0 -11 -7 -18z m5368
-241 c9 -11 9 -16 -1 -22 -7 -4 -10 -4 -6 1 4 4 3 14 -3 22 -6 7 -9 13 -6 13
2 0 10 -6 16 -14z m46 -76 c-3 -5 -12 -10 -18 -10 -7 0 -6 4 3 10 19 12 23 12
15 0z m158 -325 c-3 -9 -8 -14 -10 -11 -3 3 -2 9 2 15 9 16 15 13 8 -4z
m-5863 -119 c0 -3 -4 -8 -10 -11 -5 -3 -10 -1 -10 4 0 6 5 11 10 11 6 0 10 -2
10 -4z m6107 -641 c0 -8 -4 -12 -9 -9 -5 3 -6 10 -3 15 9 13 12 11 12 -6z m-4
-120 c-3 -9 -8 -14 -10 -11 -3 3 -2 9 2 15 9 16 15 13 8 -4z m1 -61 c3 -8 2
-12 -4 -9 -6 3 -10 10 -10 16 0 14 7 11 14 -7z m-7 -126 c-3 -8 -6 -5 -6 6 -1
11 2 17 5 13 3 -3 4 -12 1 -19z m10 -93 c0 -8 -4 -12 -9 -9 -5 3 -6 10 -3 15
9 13 12 11 12 -6z m-6657 -35 c0 -5 -5 -10 -11 -10 -5 0 -7 5 -4 10 3 6 8 10
11 10 2 0 4 -4 4 -10z m6653 -85 c-3 -9 -8 -14 -10 -11 -3 3 -2 9 2 15 9 16
15 13 8 -4z m-6693 -5 c0 -5 -5 -10 -11 -10 -5 0 -7 5 -4 10 3 6 8 10 11 10 2
0 4 -4 4 -10z m-120 -560 c0 -5 -5 -10 -11 -10 -5 0 -7 5 -4 10 3 6 8 10 11
10 2 0 4 -4 4 -10z m47 -475 c0 -8 -4 -12 -9 -9 -5 3 -6 10 -3 15 9 13 12 11
12 -6z m3 -35 c0 -5 -2 -10 -4 -10 -3 0 -8 5 -11 10 -3 6 -1 10 4 10 6 0 11
-4 11 -10z m4180 -984 c0 -3 -4 -8 -10 -11 -5 -3 -10 -1 -10 4 0 6 5 11 10 11
6 0 10 -2 10 -4z m-2805 -185 c-6 -5 -25 10 -25 20 0 5 6 4 14 -3 8 -7 12 -15
11 -17z m3492 15 c0 -8 -6 -12 -15 -9 -11 5 -11 7 0 14 7 5 13 9 14 9 0 0 1
-6 1 -14z m933 -130 c0 -3 -4 -8 -10 -11 -5 -3 -10 -1 -10 4 0 6 5 11 10 11 6
0 10 -2 10 -4z"/>
<path d="M3755 6300 c-3 -5 -1 -10 4 -10 6 0 11 5 11 10 0 6 -2 10 -4 10 -3 0
-8 -4 -11 -10z"/>
<path d="M2697 6203 c-4 -3 -7 -11 -7 -17 0 -6 5 -5 12 2 6 6 9 14 7 17 -3 3
-9 2 -12 -2z"/>
<path d="M4520 6151 c0 -6 4 -13 10 -16 6 -3 7 1 4 9 -7 18 -14 21 -14 7z"/>
<path d="M4741 6063 c-1 -17 16 -25 25 -12 4 7 3 9 -4 5 -5 -3 -13 0 -15 6 -4
9 -6 10 -6 1z"/>
<path d="M5100 5906 c0 -2 8 -10 18 -17 15 -13 16 -12 3 4 -13 16 -21 21 -21
13z"/>
<path d="M5155 5870 c3 -5 8 -10 11 -10 2 0 4 5 4 10 0 6 -5 10 -11 10 -5 0
-7 -4 -4 -10z"/>
<path d="M6320 4861 c0 -6 4 -13 10 -16 6 -3 7 1 4 9 -7 18 -14 21 -14 7z"/>
<path d="M944 4732 c3 -5 0 -13 -6 -15 -9 -4 -10 -6 -1 -6 17 -1 25 16 12 25
-7 4 -9 3 -5 -4z"/>
<path d="M6757 3979 c7 -7 15 -10 18 -7 3 3 -2 9 -12 12 -14 6 -15 5 -6 -5z"/>
<path d="M6800 3860 c8 -5 20 -10 25 -10 6 0 3 5 -5 10 -8 5 -19 10 -25 10 -5
0 -3 -5 5 -10z"/>
<path d="M205 3140 c-3 -6 1 -7 9 -4 18 7 21 14 7 14 -6 0 -13 -4 -16 -10z"/>
<path d="M120 2865 c-7 -9 -8 -15 -2 -15 5 0 12 7 16 15 3 8 4 15 2 15 -2 0
-9 -7 -16 -15z"/>
<path d="M33 2225 c0 -8 4 -12 9 -9 5 3 6 10 3 15 -9 13 -12 11 -12 -6z"/>
<path d="M6295 1381 c-3 -5 -2 -12 3 -15 5 -3 9 1 9 9 0 17 -3 19 -12 6z"/>
<path d="M756 1278 c3 -5 10 -6 15 -3 13 9 11 12 -6 12 -8 0 -12 -4 -9 -9z"/>
<path d="M1067 1279 c7 -7 15 -10 18 -7 3 3 -2 9 -12 12 -14 6 -15 5 -6 -5z"/>
<path d="M6300 1260 c0 -5 5 -10 11 -10 5 0 7 5 4 10 -3 6 -8 10 -11 10 -2 0
-4 -4 -4 -10z"/>
<path d="M6225 911 c-3 -5 0 -13 6 -17 7 -4 9 -3 5 4 -3 5 0 13 6 15 9 4 10 6
1 6 -6 1 -14 -3 -18 -8z"/>
<path d="M1350 901 c0 -5 7 -12 16 -15 14 -5 15 -4 4 9 -14 17 -20 19 -20 6z"/>
<path d="M1571 684 c0 -11 3 -14 6 -6 3 7 2 16 -1 19 -3 4 -6 -2 -5 -13z"/>
<path d="M5845 609 c-4 -6 -5 -12 -2 -15 2 -3 7 2 10 11 7 17 1 20 -8 4z"/>
<path d="M5810 600 c0 -5 5 -10 11 -10 5 0 7 5 4 10 -3 6 -8 10 -11 10 -2 0
-4 -4 -4 -10z"/>
</g>
</svg>
